<svg xmlns="http://www.w3.org/2000/svg" width="512" height="456.349" viewBox="0 0 512 456.349">
  <g id="cloudy-sun-rays-svgrepo-com" transform="translate(0 -27.825)">
    <path id="Path_81" data-name="Path 81" d="M308.323,166.444A148.025,148.025,0,1,1,138.616,43.878,148.026,148.026,0,0,1,308.323,166.444Z" fill="#ffffa6"/>
    <path id="Path_82" data-name="Path 82" d="M250.094,175.836a89.044,89.044,0,1,1-102.086-73.729A89.044,89.044,0,0,1,250.094,175.836ZM134.45,70.47a8.348,8.348,0,0,0,16.483-2.659l-5.317-32.965A8.348,8.348,0,0,0,129.133,37.5Zm-94.465,130.8L7.02,206.586a8.348,8.348,0,1,0,2.659,16.483l32.965-5.317a8.348,8.348,0,0,0-2.659-16.483Zm27.834-89.707L40.75,92.012a8.348,8.348,0,1,0-9.775,13.535L58.044,125.1a8.347,8.347,0,1,0,9.775-13.534ZM258.31,56.923a8.347,8.347,0,0,0-11.655,1.88L227.1,85.872a8.348,8.348,0,0,0,13.535,9.776L260.19,68.579A8.35,8.35,0,0,0,258.31,56.923Z" fill="#ffe954"/>
    <path id="Path_83" data-name="Path 83" d="M345.043,484.174H122.435A122.435,122.435,0,1,1,165.8,247.216,178.109,178.109,0,0,1,512,306.087C512,400.7,438.212,478.426,345.043,484.174Z" fill="#a7e5cb"/>
    <path id="Path_84" data-name="Path 84" d="M512,306.087c0,94.615-73.788,172.339-166.957,178.087H122.435A122.483,122.483,0,0,1,6.65,401.623a121.872,121.872,0,0,0,60.133,15.768H289.392v-.356A178.16,178.16,0,0,0,438.83,162.186,177.834,177.834,0,0,1,512,306.087Z" fill="#93d6bb"/>
  </g>
</svg>
