<svg xmlns="http://www.w3.org/2000/svg" width="239.605" height="512" viewBox="0 0 239.605 512">
  <g id="temperatures-heat-svgrepo-com" transform="translate(-136.198)">
    <path id="Path_85" data-name="Path 85" d="M256.019,512c-.563,0-1.122,0-1.687-.011C188.79,511.1,135.8,457.02,136.2,391.449a119.6,119.6,0,0,1,46.36-93.909V73.439a73.439,73.439,0,0,1,146.879,0v224.1A119.805,119.805,0,0,1,256.019,512Z" fill="#fee856"/>
    <path id="Path_86" data-name="Path 86" d="M272.7,331.958V82.852a16.7,16.7,0,0,0-33.392,0V331.96a62.517,62.517,0,1,0,33.392,0Z" fill="#e65c7b"/>
    <path id="Path_87" data-name="Path 87" d="M329.438,297.539V73.439A73.522,73.522,0,0,0,256,0h0V512h.019a119.8,119.8,0,0,0,73.419-214.461Z" fill="#ffce3e"/>
    <path id="Path_88" data-name="Path 88" d="M272.7,331.958V82.852a16.7,16.7,0,0,0-16.7-16.7h0V454.719h0a62.515,62.515,0,0,0,16.7-122.761Z" fill="#834496"/>
  </g>
</svg>
