<svg xmlns="http://www.w3.org/2000/svg" width="58" height="61.316" viewBox="0 0 58 61.316">
  <g id="lights" transform="translate(-5 -1.684)">
    <circle id="Ellipse_4"  cx="2.5" cy="2.5" r="2.5" transform="translate(40 53)" fill="none" stroke="#4c241d" stroke-linecap="round" stroke-linejoin="round" stroke-width="2"/>
    <circle id="Ellipse_5"  cx="21.5" cy="21.5" r="21.5" transform="translate(11 11)" fill="#e5efef"/>
    <path id="Path_54"  d="M43,26H59V43.459A1.541,1.541,0,0,1,57.459,45H44.541A1.541,1.541,0,0,1,43,43.459Z" fill="#ffce56" stroke="#4c241d" stroke-linecap="round" stroke-linejoin="round" stroke-width="2"/>
    <rect id="Rectangle_5"  width="18" height="19" transform="translate(12 39)" fill="#ffce56" stroke="#4c241d" stroke-linecap="round" stroke-linejoin="round" stroke-width="2"/>
    <circle id="Ellipse_6"  cx="5" cy="5" r="5" transform="translate(46 28)" fill="#fff"/>
    <circle id="Ellipse_7"  cx="7" cy="7" r="7" transform="translate(14 42)" fill="#fff"/>
    <path id="Path_55"  d="M21,17h0a3,3,0,0,1,3,3v3H18V20A3,3,0,0,1,21,17Z" fill="#e66353" stroke="#4c241d" stroke-linecap="round" stroke-linejoin="round" stroke-width="2"/>
    <line id="Line_5"  y2="18" transform="translate(51 27)" fill="none" stroke="#4c241d" stroke-linecap="round" stroke-linejoin="round" stroke-width="2"/>
    <path id="Path_56" d="M60.145,26A7.852,7.852,0,0,0,62,21c0-4.971-11-9-11-9s-11,4.029-11,9a7.852,7.852,0,0,0,1.855,5Z" fill="#e66353" stroke="#4c241d" stroke-linecap="round" stroke-linejoin="round" stroke-width="2"/>
    <path id="Path_57"  d="M32.639,38.909A10,10,0,0,0,35,32.545c0-6.326-14-11.454-14-11.454S7,26.219,7,32.545a10,10,0,0,0,2.361,6.364Z" fill="#e66353" stroke="#4c241d" stroke-linecap="round" stroke-linejoin="round" stroke-width="2"/>
    <path id="Path_58" d="M25.157,38.909A23.026,23.026,0,0,0,26,32.545c0-6.326-5-11.454-5-11.454s-5,5.128-5,11.454a23.026,23.026,0,0,0,.843,6.364Z" fill="#e66353" stroke="#4c241d" stroke-linecap="round" stroke-linejoin="round" stroke-width="2"/>
    <line id="Line_6"  y1="8" transform="translate(51 4)" fill="none" stroke="#4c241d" stroke-linecap="round" stroke-linejoin="round" stroke-width="2"/>
    <line id="Line_7" x2="16" transform="translate(43 40)" fill="none" stroke="#4c241d" stroke-linecap="round" stroke-linejoin="round" stroke-width="2"/>
    <line id="Line_8"  y1="13" transform="translate(21 4)" fill="none" stroke="#4c241d" stroke-linecap="round" stroke-linejoin="round" stroke-width="2"/>
    <path id="Path_59"  d="M10,58H32v1a3,3,0,0,1-3,3H13a3,3,0,0,1-3-3Z" fill="#e66353" stroke="#4c241d" stroke-linecap="round" stroke-linejoin="round" stroke-width="2"/>
    <line id="Line_9"  y2="19" transform="translate(21 39)" fill="none" stroke="#4c241d" stroke-linecap="round" stroke-linejoin="round" stroke-width="2"/>
    <line id="Line_10"  x2="17" transform="translate(13 52)" fill="none" stroke="#4c241d" stroke-linecap="round" stroke-linejoin="round" stroke-width="2"/>
    <line id="Line_11"  x2="17" transform="translate(13 46)" fill="none" stroke="#4c241d" stroke-linecap="round" stroke-linejoin="round" stroke-width="2"/>
    <line id="Line_12" x2="2" transform="translate(8 12)" fill="none" stroke="#4c241d" stroke-linecap="round" stroke-linejoin="round" stroke-width="2"/>
    <line id="Line_13" y2="2" transform="translate(12 8)" fill="none" stroke="#4c241d" stroke-linecap="round" stroke-linejoin="round" stroke-width="2"/>
    <line id="Line_14" transform="translate(12 14)" fill="none" stroke="#4c241d" stroke-linecap="round" stroke-linejoin="round" stroke-width="2"/>
    <line id="Line_15" transform="translate(14 12)" fill="none" stroke="#4c241d" stroke-linecap="round" stroke-linejoin="round" stroke-width="2"/>
    <circle id="Ellipse_8"  cx="1" cy="1" r="1" transform="translate(38 11)" fill="#4c241d"/>
    <circle id="Ellipse_9"  cx="1" cy="1" r="1" transform="translate(5 45)" fill="#4c241d"/>
    <path id="Path_60" d="M16,2.8A157.487,157.487,0,0,0,36,4,157.484,157.484,0,0,0,56,2.8" fill="none" stroke="#4c241d" stroke-linecap="round" stroke-linejoin="round" stroke-width="2"/>
  </g>
</svg>
