<svg xmlns="http://www.w3.org/2000/svg" width="392.518" height="392.598" viewBox="0 0 392.518 392.598">
  <g id="note-notepad-svgrepo-com" transform="translate(-0.04)">
    <path id="Path_61" d="M367.62,150.174l-19.265,19.265-21.463-21.4,19.265-19.265a11.3,11.3,0,0,1,15.451,0l6.012,6.012A10.847,10.847,0,0,1,367.62,150.174Z" fill="#56ace0"/>
    <path id="Path_62" d="M242.141,66.586a10.911,10.911,0,0,0-10.925-10.925H32.752A10.911,10.911,0,0,0,21.827,66.586v293.3a10.911,10.911,0,0,0,10.925,10.925H231.217a10.911,10.911,0,0,0,10.925-10.925" fill="#fff"/>
    <rect id="Rectangle_6"  width="176.614" height="248.048" transform="translate(43.677 100.978)" fill="#ffc10d"/>
    <g id="Group_33" >
      <path id="Path_63" d="M194.626,148.17H69.341a10.925,10.925,0,0,1,0-21.85H194.626a10.925,10.925,0,1,1,0,21.85Z" fill="#194f82"/>
      <path id="Path_64" d="M194.626,207.257H69.341a10.925,10.925,0,0,1,0-21.85H194.626a10.925,10.925,0,1,1,0,21.85Z" fill="#194f82"/>
      <path id="Path_65" d="M383.006,119.337l-6.012-6.012a32.618,32.618,0,0,0-46.158,0l-66.909,66.844V66.586a32.749,32.749,0,0,0-32.711-32.711h-7.5V10.925a10.925,10.925,0,0,0-21.85,0V33.81H169.8V10.925a10.925,10.925,0,0,0-21.85,0V33.81H115.823V10.925A10.913,10.913,0,0,0,104.9,0,10.747,10.747,0,0,0,94.166,10.925V33.81H62.036V10.925a10.925,10.925,0,1,0-21.85,0V33.81H32.752A32.805,32.805,0,0,0,.04,66.586v293.3A32.749,32.749,0,0,0,32.751,392.6H231.216a32.749,32.749,0,0,0,32.711-32.711V284.7L383.006,165.624A32.815,32.815,0,0,0,383.006,119.337ZM242.141,359.887a10.911,10.911,0,0,1-10.925,10.925H32.752a10.911,10.911,0,0,1-10.925-10.925V66.586A10.911,10.911,0,0,1,32.752,55.661h7.5V78.546a10.925,10.925,0,1,0,21.85,0V55.661H94.166V78.546a10.925,10.925,0,1,0,21.85,0V55.661h32.065V78.546a10.925,10.925,0,0,0,21.85,0V55.661H202V78.546a10.925,10.925,0,0,0,21.85,0V55.661h7.5A10.911,10.911,0,0,1,242.27,66.586v135.37L199.8,244.429H69.341a10.925,10.925,0,0,0,0,21.85H177.818l-6.335,6.335a11.442,11.442,0,0,0-3.1,6.077l-3.685,24.76H69.341a10.925,10.925,0,1,0,0,21.85h92.574a10.667,10.667,0,0,0,3.038,6.206c3.168,2.715,6.335,3.685,9.374,3.1l43.378-6.594a10.606,10.606,0,0,0,6.077-3.1l18.36-18.36v53.334Zm-31.288-52.881-25.277,3.814,3.814-25.277L311.507,163.426l21.4,21.4ZM367.62,150.174l-19.265,19.265-21.463-21.4,19.265-19.265a11.3,11.3,0,0,1,15.451,0l6.012,6.012A10.847,10.847,0,0,1,367.62,150.174Z" fill="#194f82"/>
    </g>
    <path id="Path_66" d="M332.9,184.824l-21.4-21.4L189.325,285.479l-3.749,25.277,25.277-3.75Z" fill="#56ace0"/>
  </g>
</svg>
