<svg xmlns="http://www.w3.org/2000/svg" xmlns:xlink="http://www.w3.org/1999/xlink" width="512" height="344.964" viewBox="0 0 512 344.964">
  <defs>
    <linearGradient id="linear-gradient" x1="0.375" y1="0.491" x2="1.132" y2="0.954" gradientUnits="objectBoundingBox">
      <stop offset="0" stop-color="#eee9d2"/>
      <stop offset="1" stop-color="#fef7e8"/>
    </linearGradient>
    <linearGradient id="linear-gradient-2" x1="0.5" y1="1.256" x2="0.5" y2="0.492" gradientUnits="objectBoundingBox">
      <stop offset="0" stop-color="#c2bd9c"/>
      <stop offset="1" stop-color="#fef7e8"/>
    </linearGradient>
    <linearGradient id="linear-gradient-3" y1="3.582" y2="1.391" xlink:href="#linear-gradient-2"/>
    <linearGradient id="linear-gradient-4" y1="1.341" y2="0.491" xlink:href="#linear-gradient-2"/>
    <linearGradient id="linear-gradient-5" x1="0.895" y1="-0.319" x2="0.665" y2="0.288" xlink:href="#linear-gradient-2"/>
    <linearGradient id="linear-gradient-6" y1="2.324" y2="0.845" xlink:href="#linear-gradient-2"/>
    <linearGradient id="linear-gradient-7" x1="-2.043" y1="0.5" x2="3.334" y2="0.5" xlink:href="#linear-gradient-2"/>
    <linearGradient id="linear-gradient-8" x1="0.346" y1="0.566" x2="1.073" y2="1.236" xlink:href="#linear-gradient"/>
  </defs>
  <g id="weather-svgrepo-com" transform="translate(0 0.001)">
    <path id="Path_67" d="M476.8,274.568H403.98A144.293,144.293,0,0,0,485.919,134.93c-2.6-41.2-22.941-77.88-53.324-102.579l.013-.013A148.321,148.321,0,0,0,405.272,14.8,142.143,142.143,0,0,0,351.244.295a144.334,144.334,0,0,0-143,89.553l.016,0q-2.459,6.03-4.377,12.317c-.4-.06-.811-.084-1.213-.139.4.052.8.076,1.19.132,1.29-4.19,2.772-8.317,4.384-12.314A104.769,104.769,0,0,0,85.168,193.067c0,2.965.193,5.931.387,8.9a51.71,51.71,0,0,0-65.31,45.13,51.768,51.768,0,0,0,5.545,28.754A35.313,35.313,0,0,0,0,309.761a32.559,32.559,0,0,0,.58,6.189,35.189,35.189,0,0,0,28.432,28.432,32.494,32.494,0,0,0,6.189.58h84.78l0,0H476.8a35.2,35.2,0,0,0,0-70.392ZM99.972,219.253l-9.4-2.572,9.4,2.554ZM65.89,213.44a37.6,37.6,0,0,1,6-.451,38.343,38.343,0,0,1,6.67.661,38.923,38.923,0,0,0-6.7-.655,40.027,40.027,0,0,0-5.962.453A38.42,38.42,0,0,0,48.278,221,38.379,38.379,0,0,1,65.89,213.44ZM37.263,269.9l2.419,4.655-2.417-4.643c-.191-.371-.312-.768-.49-1.144C36.953,269.145,37.073,269.539,37.263,269.9ZM25.8,289.562a22.442,22.442,0,0,0-10.664,10.616A22.249,22.249,0,0,1,25.8,289.562Zm1.385,40.958c-.214-.083-.45-.116-.661-.206C26.731,330.4,26.967,330.437,27.181,330.52Zm3.52,1.094a22.316,22.316,0,0,0,4.484.453h97.687l0,0H35.2A22.4,22.4,0,0,1,30.7,331.614Z" fill="url(#linear-gradient)"/>
    <g id="Group_34">
      <path id="Path_68" d="M432.607,32.339,308.176,156.77a76.975,76.975,0,0,0-17.987,5.222,104.828,104.828,0,0,0-81.944-72.144A144.331,144.331,0,0,1,351.243.3,142.138,142.138,0,0,1,405.27,14.8,148.241,148.241,0,0,1,432.607,32.339Z" fill="#fbe2a7"/>
      <path id="Path_69"  d="M208.244,89.848c-1.612,4-3.1,8.124-4.384,12.314a97.138,97.138,0,0,0-13.8-1.031,91.984,91.984,0,0,0-91.937,91.937,77.776,77.776,0,0,0,.323,7.8L100,219.244,82.2,214.409a38.866,38.866,0,0,0-16.311-.968,39.017,39.017,0,0,0-28.625,56.478l7.349,14.119-15.344,4.255A22.287,22.287,0,0,0,35.2,332.069h97.675l-12.894,12.894H35.2a32.56,32.56,0,0,1-6.189-.58A35.189,35.189,0,0,1,.581,315.951,32.5,32.5,0,0,1,0,309.761a35.311,35.311,0,0,1,25.789-33.912,51.979,51.979,0,0,1,38.168-75.174,52.368,52.368,0,0,1,21.6,1.29c-.194-2.966-.387-5.932-.387-8.9A104.768,104.768,0,0,1,208.244,89.848Z" fill="url(#linear-gradient-2)"/>
      <path id="Path_70" d="M277.887,165.784l4.237,13.659,5.892-2.52,20.166-20.166a78.4,78.4,0,0,0-17.978,5.208,104.975,104.975,0,0,0-81.936-72.138q-2.465,6.041-4.386,12.342A91.393,91.393,0,0,1,277.887,165.784Z" fill="#f0db70"/>
      <path id="Path_71" d="M277.887,165.784l4.237,13.659,5.892-2.52,20.166-20.166a78.4,78.4,0,0,0-17.978,5.208,104.975,104.975,0,0,0-81.936-72.138q-2.465,6.041-4.386,12.342A91.393,91.393,0,0,1,277.887,165.784Z" fill="url(#linear-gradient-3)"/>
      <path id="Path_72" d="M197.881,153.679a144.81,144.81,0,0,1,6-51.51,93.469,93.469,0,0,0-13.839-1.061A92.055,92.055,0,0,0,98.1,193.062c0,2.632.12,5.235.334,7.81l1.543,18.381L82.18,214.386a39.188,39.188,0,0,0-10.319-1.391,40.027,40.027,0,0,0-5.962.453,38.968,38.968,0,0,0-28.634,56.458L44.6,284.022l-15.325,4.256a22.292,22.292,0,0,0,5.912,43.789h97.687L229.945,235A143.106,143.106,0,0,1,197.881,153.679Z" fill="url(#linear-gradient-4)"/>
      <path id="Path_73" d="M197.881,153.679a144.81,144.81,0,0,1,6-51.51,93.469,93.469,0,0,0-13.839-1.061A92.055,92.055,0,0,0,98.1,193.062c0,2.632.12,5.235.334,7.81l1.543,18.381L82.18,214.386a39.188,39.188,0,0,0-10.319-1.391,40.027,40.027,0,0,0-5.962.453,38.968,38.968,0,0,0-28.634,56.458L44.6,284.022l-15.325,4.256a22.292,22.292,0,0,0,5.912,43.789h97.687L229.945,235A143.106,143.106,0,0,1,197.881,153.679Z" opacity="0.3" fill="url(#linear-gradient-5)"/>
      <path id="Path_74" d="M197.881,153.679A143.118,143.118,0,0,0,229.944,235l58.073-58.073-5.892,2.52-4.237-13.659a91.394,91.394,0,0,0-74-63.615A144.776,144.776,0,0,0,197.881,153.679Z" fill="#f0db70"/>
      <path id="Path_75" d="M197.881,153.679A143.118,143.118,0,0,0,229.944,235l58.073-58.073-5.892,2.52-4.237-13.659a91.394,91.394,0,0,0-74-63.615A144.776,144.776,0,0,0,197.881,153.679Z" fill="url(#linear-gradient-6)"/>
      <path id="Path_76" d="M197.881,153.679A143.118,143.118,0,0,0,229.944,235l58.073-58.073-5.892,2.52-4.237-13.659a91.394,91.394,0,0,0-74-63.615A144.776,144.776,0,0,0,197.881,153.679Z" opacity="0.3" fill="url(#linear-gradient-7)"/>
      <path id="Path_77" d="M332.613,156.445a78.921,78.921,0,0,1,56.611,118.123h14.755A144.293,144.293,0,0,0,485.918,134.93c-2.6-41.2-22.943-77.882-53.327-102.582L308.182,156.757A80.344,80.344,0,0,1,332.613,156.445Z" fill="#f0db70"/>
      <path id="Path_78" d="M512,309.765a35.3,35.3,0,0,0-35.2-35.2H403.98a143.168,143.168,0,0,1-36.655,11.768l-.663,1.125H476.806a22.3,22.3,0,0,1,0,44.605H132.872l-12.894,12.894H476.8A35.3,35.3,0,0,0,512,309.765Z" fill="#dfdbcb"/>
      <path id="Path_79" d="M399.491,224.517a78.949,78.949,0,0,0-66.878-68.072,80.376,80.376,0,0,0-24.431.312l-20.166,20.166,7.254-3.1a65.6,65.6,0,0,1,25.927-5.286,69.275,69.275,0,0,1,9.62.677c28.811,4.045,52.308,27.967,55.871,56.885a65.886,65.886,0,0,1-8.575,41.926l-10.79,18.314a143.207,143.207,0,0,0,36.655-11.768H389.223A78.9,78.9,0,0,0,399.491,224.517Z" fill="#f4f4c5"/>
      <path id="Path_80" d="M476.8,287.462H366.662l.663-1.125,10.79-18.314A65.885,65.885,0,0,0,386.69,226.1c-3.564-28.918-27.061-52.84-55.871-56.885a69.286,69.286,0,0,0-9.62-.677,65.6,65.6,0,0,0-25.927,5.286l-7.254,3.1L229.945,235l-97.071,97.07H476.807a22.3,22.3,0,1,0,0-44.6Z" fill="url(#linear-gradient-8)"/>
    </g>
  </g>
</svg>
