<svg xmlns="http://www.w3.org/2000/svg" width="512" height="459.607" viewBox="0 0 512 459.607">
  <g id="wind-svgrepo-com" transform="translate(0 -26.197)">
    <g id="Group_35" >
      <path id="Path_93" d="M280.392,296.556c-.366,0-.734-.017-1.106-.052a11.687,11.687,0,0,1-10.543-12.727c3.064-32.609,25.733-56.194,26.7-57.182A11.686,11.686,0,0,1,312.2,242.887c-.3.311-17.915,18.942-20.182,43.075A11.691,11.691,0,0,1,280.392,296.556Z" fill="#7dbf63"/>
      <path id="Path_94" d="M449.877,196.553c-46.012,46.012-117.384,53.254-147.811,54.149a14.158,14.158,0,0,1-14.572-14.572c.9-30.428,8.137-101.8,54.149-147.811S459.027,35.065,489.454,34.17a14.158,14.158,0,0,1,14.572,14.572C503.132,79.169,495.89,150.541,449.877,196.553Z" fill="#7dbf63"/>
    </g>
    <circle id="Ellipse_10" cx="13.821" cy="13.821" r="13.821" transform="translate(408.641 155.315)" opacity="0.3"/>
    <path id="Path_95" d="M311.771,241A14.158,14.158,0,0,1,297.2,226.425c.864-29.352,7.645-96.794,49.424-142.83-1.687,1.532-3.353,3.1-4.98,4.724C295.631,134.331,288.39,205.7,287.494,236.13A14.158,14.158,0,0,0,302.066,250.7c30.428-.9,101.8-8.136,147.811-54.149,1.626-1.626,3.192-3.293,4.724-4.98C408.567,233.352,341.123,240.133,311.771,241Z" opacity="0.1"/>
    <path id="Path_96" d="M489.455,34.169c-4.444.131-9.78.4-15.764.906a44.99,44.99,0,0,0,24.117,65.66,296.467,296.467,0,0,0,6.218-51.994A14.158,14.158,0,0,0,489.455,34.169Z" fill="#fff" opacity="0.2"/>
    <path id="Path_97" d="M359.662,186.5a7.968,7.968,0,0,1-5.635-13.6l72.2-72.2a7.967,7.967,0,1,1,11.268,11.267l-72.2,72.2A7.94,7.94,0,0,1,359.662,186.5Z" opacity="0.2"/>
    <path id="Path_98" d="M326.312,360.01H258.835a7.968,7.968,0,1,0,0,15.936h67.477a7.968,7.968,0,0,0,0-15.936Zm-7.1-163.44A7.968,7.968,0,1,0,330.479,185.3l-5.491-5.491a7.967,7.967,0,0,0-11.266,11.269ZM438.626,77.153A7.968,7.968,0,0,0,449.9,65.886l-5.49-5.49a7.968,7.968,0,0,0-11.269,11.268ZM428.9,319.625H39.14a7.968,7.968,0,1,0,0,15.936H428.906a67.154,67.154,0,1,1-67.154,67.154,7.968,7.968,0,1,0-15.936,0,83.089,83.089,0,1,0,83.088-83.09Zm-6.442-128.712a21.776,21.776,0,0,0,15.406-37.18h0a21.786,21.786,0,1,0-15.4,37.18ZM418.325,165a5.851,5.851,0,1,1,0,8.274A5.833,5.833,0,0,1,418.325,165ZM428.9,375.946a7.968,7.968,0,0,0,0-15.936,42.7,42.7,0,1,0,42.7,42.7,7.968,7.968,0,1,0-15.936,0A26.769,26.769,0,1,1,428.9,375.946ZM278.533,304.435c.615.058,1.241.088,1.86.088a19.562,19.562,0,0,0,19.552-17.815c1.054-11.217,5.937-21.219,10.54-28.4,33.815-1.977,100.635-11.724,145.028-56.117,48.328-48.329,55.6-123.245,56.478-153.209a22.127,22.127,0,0,0-22.772-22.772c-29.966.882-104.882,8.15-153.21,56.478C288.795,129.9,280.77,202.477,279.6,233.741c-7.8,11.36-16.849,28.586-18.793,49.291A19.674,19.674,0,0,0,278.533,304.435ZM347.278,93.953c44.289-44.29,114.346-50.993,142.41-51.819.064,0,.125,0,.189,0a6.188,6.188,0,0,1,6.184,6.376c-.825,28.064-7.528,98.12-51.818,142.411S329.9,241.912,301.832,242.737a6.189,6.189,0,0,1-6.373-6.373C296.285,208.3,302.987,138.243,347.278,93.953ZM286.647,252.78a22.115,22.115,0,0,0,6.265,4.077,76.83,76.83,0,0,0-8.831,28.361,3.742,3.742,0,0,1-3.69,3.371,3.475,3.475,0,0,1-.361-.018,3.723,3.723,0,0,1-3.355-4.05A84.566,84.566,0,0,1,286.647,252.78ZM216.832,360.01H67.753a7.968,7.968,0,1,0,0,15.936H216.832a7.968,7.968,0,1,0,0-15.936Zm-33.7-176.992a29.329,29.329,0,0,1,29.295,29.295,7.968,7.968,0,1,0,15.936,0,45.229,45.229,0,1,0-45.23,45.23,7.968,7.968,0,0,0,0-15.936,29.294,29.294,0,0,1,0-58.589Zm77.845,29.295a77.844,77.844,0,1,0-155.688,0,7.968,7.968,0,1,0,15.936,0,61.909,61.909,0,1,1,61.909,61.909H7.968a7.968,7.968,0,1,0,0,15.936H183.136A77.934,77.934,0,0,0,260.98,212.313Zm65.332,61.909a7.968,7.968,0,0,0,0,15.936h117.66a7.968,7.968,0,0,0,0-15.936Z"/>
  </g>
</svg>
